<?xml version="1.0" encoding="UTF-8" standalone="no"?>
<svg width="800" height="600" xmlns="http://www.w3.org/2000/svg">
    <style>
        .bg { fill: #f9f9f9; }
        .header { fill: #4682b4; }
        .card { fill: white; stroke: #dddddd; stroke-width: 1; rx: 5; ry: 5; }
        .button { fill: #4682b4; rx: 5; ry: 5; }
        .input { fill: white; stroke: #dddddd; stroke-width: 1; rx: 3; ry: 3; }
        .text { font-family: Arial, sans-serif; text-anchor: middle; dominant-baseline: middle; }
        .header-text { font-family: Arial, sans-serif; font-size: 24px; fill: white; text-anchor: middle; dominant-baseline: middle; }
        .card-title { font-family: Arial, sans-serif; font-size: 16px; font-weight: bold; text-anchor: start; dominant-baseline: middle; }
        .form-label { font-family: Arial, sans-serif; font-size: 12px; text-anchor: start; dominant-baseline: middle; }
        .button-text { font-family: Arial, sans-serif; font-size: 14px; fill: white; text-anchor: middle; dominant-baseline: middle; }
    </style>
    
    <!-- Background -->
    <rect x="0" y="0" width="800" height="600" class="bg" />
    
    <!-- Header -->
    <rect x="0" y="0" width="800" height="60" class="header" />
    <text x="400" y="30" class="header-text">Optimasi Produksi - Linear Programming</text>
    
    <!-- Form Card -->
    <rect x="50" y="80" width="700" height="500" class="card" />
    
    <!-- Form Title -->
    <text x="70" y="110" class="card-title">Input Data</text>
    
    <!-- Left Column -->
    <rect x="70" y="130" width="320" height="180" class="card" />
    <text x="90" y="150" class="card-title">Keuntungan per Produk</text>
    
    <text x="90" y="180" class="form-label">Keuntungan Produk A (Rp)</text>
    <rect x="90" y="190" width="280" height="30" class="input" />
    <text x="100" y="205" class="form-label">5000</text>
    
    <text x="90" y="230" class="form-label">Keuntungan Produk B (Rp)</text>
    <rect x="90" y="240" width="280" height="30" class="input" />
    <text x="100" y="255" class="form-label">7000</text>
    
    <!-- Another Card on Left -->
    <rect x="70" y="330" width="320" height="180" class="card" />
    <text x="90" y="350" class="card-title">Ketersediaan Sumber Daya</text>
    
    <text x="90" y="380" class="form-label">Ketersediaan Bahan A</text>
    <rect x="90" y="390" width="280" height="30" class="input" />
    <text x="100" y="405" class="form-label">100</text>
    
    <text x="90" y="430" class="form-label">Ketersediaan Bahan B</text>
    <rect x="90" y="440" width="280" height="30" class="input" />
    <text x="100" y="455" class="form-label">80</text>
    
    <text x="90" y="480" class="form-label">Ketersediaan Tenaga Kerja (jam)</text>
    <rect x="90" y="490" width="280" height="30" class="input" />
    <text x="100" y="505" class="form-label">120</text>
    
    <!-- Right Column -->
    <rect x="410" y="130" width="320" height="120" class="card" />
    <text x="430" y="150" class="card-title">Kebutuhan Bahan A</text>
    
    <text x="430" y="180" class="form-label">Bahan A untuk Produk A</text>
    <rect x="430" y="190" width="280" height="30" class="input" />
    <text x="440" y="205" class="form-label">2</text>
    
    <text x="430" y="230" class="form-label">Bahan A untuk Produk B</text>
    <rect x="430" y="240" width="280" height="30" class="input" />
    <text x="440" y="255" class="form-label">1</text>
    
    <!-- More Cards on Right -->
    <rect x="410" y="270" width="320" height="120" class="card" />
    <text x="430" y="290" class="card-title">Kebutuhan Bahan B</text>
    
    <text x="430" y="320" class="form-label">Bahan B untuk Produk A</text>
    <rect x="430" y="330" width="280" height="30" class="input" />
    <text x="440" y="345" class="form-label">1</text>
    
    <text x="430" y="370" class="form-label">Bahan B untuk Produk B</text>
    <rect x="430" y="380" width="280" height="30" class="input" />
    <text x="440" y="395" class="form-label">2</text>
    
    <rect x="410" y="410" width="320" height="120" class="card" />
    <text x="430" y="430" class="card-title">Kebutuhan Tenaga Kerja</text>
    
    <text x="430" y="460" class="form-label">Tenaga Kerja untuk Produk A (jam)</text>
    <rect x="430" y="470" width="280" height="30" class="input" />
    <text x="440" y="485" class="form-label">3</text>
    
    <text x="430" y="510" class="form-label">Tenaga Kerja untuk Produk B (jam)</text>
    <rect x="430" y="520" width="280" height="30" class="input" />
    <text x="440" y="535" class="form-label">2</text>
    
    <!-- Submit Button -->
    <rect x="330" y="540" width="140" height="40" class="button" />
    <text x="400" y="560" class="button-text">Optimasi</text>
</svg> 